<svg xmlns="http://www.w3.org/2000/svg" viewBox="0 0 303.66 95.45"><defs><style>.cls-1{fill:#ce7f3f;}.cls-2{fill:none;}.cls-3{fill:#fff;}.cls-4{fill:#e7a761;}.cls-5{fill:#e5a360;}.cls-6{fill:#f6bc7f;}.cls-7{fill:#decbb9;}.cls-8{fill:#a66851;}</style></defs><title>Asset 3</title><g id="Layer_2" data-name="Layer 2"><g id="Capa_1" data-name="Capa 1"><polygon id="FRANJA" class="cls-1" points="275.32 83.28 98.34 83.28 101.97 61.74 278.95 61.74 275.32 83.28"/><g id="TEXTOS"><path class="cls-2" d="M169.14,20.51h-2.82V31.94h2.28c2.18,0,3.51-1,3.51-3.94V24.34C172.11,21.68,171.21,20.51,169.14,20.51Z"/><path class="cls-2" d="M249.47,20.51h-2.82V31.94h2.29c2.18,0,3.51-1,3.51-3.94V24.34C252.45,21.68,251.54,20.51,249.47,20.51Z"/><path d="M88.48,23.75c0-2.66,1.06-3.67,2.93-3.67s2.92,1,2.92,3.67v1.54h5.53V24.12c0-5.95-2.92-9.35-8.61-9.35s-8.62,3.4-8.62,9.35c0,5.21,2.74,8.21,5.54,10.82h8.44C93.23,31,88.48,28.69,88.48,23.75Z"/><polygon points="108.05 30.88 108.05 20.51 118.15 20.51 118.15 15.19 102.2 15.19 102.2 34.94 116.08 34.94 116.08 30.88 108.05 30.88"/><path d="M137.66,27.74V24.12c0-5.95-3-9.35-8.72-9.35s-8.72,3.4-8.72,9.35V34.94h5.85V23.75c0-2.66,1.17-3.67,3-3.67s3,1,3,3.67v4Z"/><rect x="129.47" y="31.67" width="8.19" height="3.26"/><rect x="140.11" y="15.19" width="5.85" height="19.75"/><rect x="152.02" y="15.19" width="5.53" height="19.75"/><path d="M178,26.68V23.75c0-5.74-2.6-8.56-8.66-8.56h-8.83V34.94h14.91a5.42,5.42,0,0,0-1.25-.71C176.74,33,178,30.5,178,26.68ZM172.11,28c0,3-1.33,3.94-3.51,3.94h-2.28V20.51h2.82c2.07,0,3,1.17,3,3.83Z"/><path d="M198.06,34.94V24.12c0-5.95-3.14-9.35-8.88-9.35s-8.88,3.4-8.88,9.35V34.94h5.85V23.75c0-2.66,1.17-3.67,3-3.67s3,1,3,3.67V34.94Z"/><path d="M209.17,20.08c1.86,0,3,1,3,3.67v4h5.53V24.12c0-5.95-3-9.35-8.72-9.35s-8.72,3.4-8.72,9.35V34.94h5.85V23.75C206.14,21.09,207.31,20.08,209.17,20.08Z"/><polygon points="233.2 15.19 224.64 15.19 221.48 34.94 226.66 34.94 228.63 21.78 230.6 34.94 236.36 34.94 233.2 15.19"/><path d="M258.3,26.68V23.75c0-5.74-2.61-8.56-8.67-8.56H240.8V34.94h14.92a5.42,5.42,0,0,0-1.25-.71C257.07,33,258.3,30.5,258.3,26.68ZM252.45,28c0,3-1.33,3.94-3.51,3.94h-2.29V20.51h2.82c2.07,0,3,1.17,3,3.83Z"/><rect x="269.89" y="31.67" width="8.19" height="3.26"/><path d="M278.08,27.74V24.12c0-5.95-3-9.35-8.73-9.35s-8.72,3.4-8.72,9.35V34.94h5.85V23.75c0-2.66,1.17-3.67,3-3.67s3,1,3,3.67v4Z"/><path d="M289.19,14.77c-5.75,0-8.88,3.4-8.88,9.35V34.94h5.85V23.75c0-2.66,1.17-3.67,3-3.67s3,1,3,3.67V34.94h5.85V24.12C298.07,18.17,294.93,14.77,289.19,14.77Z"/><path d="M91.19,56.27c5.75,0,8.72-3.4,8.72-9.36a12.41,12.41,0,0,0-3.3-8.54H88.17c2.92,2.72,5.89,5,5.89,8.92,0,2.65-1.17,3.61-3,3.61s-3-1-3-3.61V44.63H82.47v2.28C82.47,52.87,85.45,56.27,91.19,56.27Z"/><polygon points="102.2 55.85 118.15 55.85 118.15 50.53 108.05 50.53 108.05 39.63 116.08 39.63 116.08 38.37 102.2 38.37 102.2 55.85"/><path d="M120.22,38.37v8.54c0,6,3,9.36,8.72,9.36s8.72-3.4,8.72-9.36V38.37h-8.19v2.06h2.66v6.86c0,2.65-1.17,3.61-3,3.61s-3-1-3-3.61V38.37Z"/><path d="M140.11,38.37V47c0,6,3,9.35,8.72,9.35s8.72-3.4,8.72-9.35v-8.6H152v9C152,50,150.85,51,149,51s-3-1-3-3.61v-9Z"/><path d="M160.47,55.85h5.85V40.69h2c2.66,0,3.83,1.28,3.83,4.73v5.85c0,3,.21,3.62.53,4.58h6a11.09,11.09,0,0,1-.63-4.52V45.58c0-3.26-.68-5.76-2.63-7.21H160.47Z"/><path d="M180.3,38.37v8.54c0,6,3.14,9.36,8.88,9.36s8.88-3.4,8.88-9.36V38.37h-5.85v8.92c0,2.65-1.17,3.66-3,3.66s-3-1-3-3.66V38.37Z"/><path d="M200.29,38.37v8.54c0,6,3,9.36,8.72,9.36s8.72-3.4,8.72-9.36V42H212.2v5.32c0,2.65-1.17,3.61-3,3.61s-3-1-3-3.61V38.37Z"/><polygon points="226.66 38.37 221.48 38.37 218.69 55.85 224.06 55.85 225.07 49.09 232.25 49.09 233.25 55.85 239.16 55.85 236.36 38.37 230.6 38.37 231.45 44.04 225.81 44.04 226.66 38.37"/><path d="M240.8,55.85h5.85V40.69h2c2.66,0,3.83,1.28,3.83,4.73v5.85c0,3,.21,3.62.53,4.58h6a10.92,10.92,0,0,1-.64-4.52V45.58c0-3.26-.68-5.76-2.63-7.21H240.8Z"/><path d="M260.63,38.37v8.54c0,6,3,9.36,8.72,9.36s8.73-3.4,8.73-9.36V38.37h-8.19v2.06h2.66v6.86c0,2.65-1.17,3.61-3,3.61s-3-1-3-3.61V38.37Z"/><path d="M292.22,38.37v8.92c0,2.65-1.17,3.66-3,3.66s-3-1-3-3.66V38.37h-5.85v8.54c0,6,3.13,9.36,8.88,9.36s8.88-3.4,8.88-9.36V38.37Z"/><path class="cls-3" d="M113.33,66.56h6.14l-.25,1.8h-2.08l-1.52,10.83h-2l1.52-10.83h-2.07Z"/><path class="cls-3" d="M122.71,79.19a3.93,3.93,0,0,1,0-1.55l.28-2c.16-1.17-.17-1.6-1.07-1.6h-.69l-.72,5.14h-2l1.78-12.63h3c2.06,0,2.81,1,2.54,2.9l-.14,1A3,3,0,0,1,124.07,73c.93.41,1.12,1.37.94,2.69l-.28,2a3.74,3.74,0,0,0,0,1.53Zm-.64-10.83-.55,3.88h.78c.74,0,1.24-.32,1.38-1.33l.17-1.25c.13-.9-.12-1.3-.82-1.3Z"/><path class="cls-3" d="M132.24,79.19h-2l0-2.29h-2.44l-.66,2.29H125.3l3.79-12.63H132Zm-4-4h1.91l-.06-6.38Z"/><path class="cls-3" d="M136.22,70l-1.29,9.15h-1.78l1.77-12.63h2.49l1,7.56,1.06-7.56h1.77l-1.77,12.63h-2Z"/><path class="cls-3" d="M145.34,66.41c1.93,0,2.76,1.16,2.48,3.18l-.06.4h-1.87l.07-.53c.13-.9-.19-1.24-.82-1.24s-1,.34-1.16,1.24c-.37,2.6,3.44,3.09,2.93,6.7-.28,2-1.45,3.18-3.4,3.18s-2.8-1.16-2.52-3.18l.11-.78H143l-.13.91c-.12.9.23,1.22.86,1.22s1.07-.32,1.2-1.22c.37-2.6-3.45-3.09-2.94-6.7C142.26,67.57,143.41,66.41,145.34,66.41Z"/><path class="cls-3" d="M154.85,69.68l-.23,1.64c-.29,2-1.42,3.12-3.4,3.12h-.94l-.67,4.75h-2l1.77-12.63h2.93C154.31,66.56,155.13,67.66,154.85,69.68Zm-3.72-1.32-.6,4.28h.94c.63,0,1-.29,1.14-1.19l.27-1.9c.13-.9-.18-1.19-.81-1.19Z"/><path class="cls-3" d="M155.71,69.59a3.31,3.31,0,0,1,3.46-3.18c2,0,2.85,1.16,2.57,3.18l-.92,6.57a3.32,3.32,0,0,1-3.47,3.18c-1.94,0-2.85-1.16-2.56-3.18Zm1,6.7c-.13.9.22,1.24.85,1.24s1.08-.34,1.2-1.24l1-6.83c.13-.9-.22-1.24-.85-1.24s-1.08.34-1.21,1.24Z"/><path class="cls-3" d="M165.82,79.19a3.93,3.93,0,0,1,0-1.55l.28-2c.17-1.17-.17-1.6-1.07-1.6h-.69l-.72,5.14h-2l1.78-12.63h3c2.06,0,2.81,1,2.54,2.9l-.14,1A3,3,0,0,1,167.18,73c.93.41,1.12,1.37.94,2.69l-.27,2a3.42,3.42,0,0,0,0,1.53Zm-.64-10.83-.55,3.88h.78c.74,0,1.24-.32,1.38-1.33l.18-1.25c.12-.9-.13-1.3-.83-1.3Z"/><path class="cls-3" d="M170.13,66.56h6.14l-.26,1.8h-2.07l-1.53,10.83h-2L172,68.36h-2.08Z"/><path class="cls-3" d="M181.1,79.19h-2l0-2.29h-2.43L176,79.19h-1.82L178,66.56h2.9Zm-4-4H179L179,68.8Z"/><path class="cls-3" d="M188.44,74.48l-.24,1.68c-.28,2-1.45,3.18-3.4,3.18s-2.8-1.16-2.52-3.18l.93-6.57c.28-2,1.45-3.18,3.4-3.18s2.8,1.16,2.52,3.18L189,70.82h-1.87l.19-1.36c.12-.9-.22-1.24-.86-1.24s-1.07.34-1.2,1.24l-1,6.83c-.13.9.23,1.22.86,1.22s1.07-.32,1.2-1.22l.25-1.81Z"/><path class="cls-3" d="M190.76,66.56h2L191,79.19h-2Z"/><path class="cls-3" d="M193.61,69.59a3.3,3.3,0,0,1,3.46-3.18c2,0,2.85,1.16,2.56,3.18l-.92,6.57a3.3,3.3,0,0,1-3.46,3.18c-1.95,0-2.85-1.16-2.57-3.18Zm1,6.7c-.13.9.22,1.24.85,1.24s1.08-.34,1.21-1.24l1-6.83c.12-.9-.23-1.24-.86-1.24s-1.07.34-1.2,1.24Zm4.9-12.4-2.12,2h-1.34l1.51-2Z"/><path class="cls-3" d="M202.62,70l-1.28,9.15h-1.79l1.78-12.63h2.49l1,7.56,1.07-7.56h1.76l-1.77,12.63h-2Z"/><path class="cls-3" d="M211.85,66.56h2l-1.78,12.63h-2Z"/><path class="cls-3" d="M216.56,70l-1.29,9.15h-1.78l1.77-12.63h2.49l1,7.56,1.06-7.56h1.77l-1.77,12.63h-2Z"/><path class="cls-3" d="M225.93,75.53l2.62-9h2.76l-1.78,12.63h-1.87l1.27-9.06-2.65,9.06h-1.87l-.23-8.93-1.25,8.93H221.2L223,66.56h2.76Z"/><path class="cls-3" d="M234,71.88h2.73l-.26,1.81h-2.72l-.52,3.7h3.43l-.26,1.8H231l1.78-12.63h5.41l-.25,1.8h-3.43Z"/><path class="cls-3" d="M239.4,66.56h3.14c2,0,2.81,1.1,2.52,3.12l-.9,6.39c-.28,2-1.41,3.12-3.39,3.12h-3.15Zm1.73,1.8-1.27,9H241c.63,0,1.06-.33,1.19-1.23l.92-6.57c.13-.9-.21-1.23-.84-1.23Z"/><path class="cls-3" d="M246.77,66.56h2L247,79.19h-2Z"/><path class="cls-3" d="M254.85,79.19h-2l0-2.29h-2.44l-.66,2.29H247.9l3.79-12.63h2.91Zm-4-4h1.91l-.06-6.38Z"/><path class="cls-3" d="M257,66.56h6.13l-.25,1.8h-2.08l-1.52,10.83h-2l1.52-10.83h-2.08Z"/><path class="cls-3" d="M267.93,79.19h-2l0-2.29h-2.44l-.66,2.29H261l3.79-12.63h2.91Zm-4-4h1.91l-.06-6.38Z"/></g><rect class="cls-1" x="82.18" y="36.3" width="221.48" height="1.03"/><g id="CAJA"><path class="cls-4" d="M39.2,95.44c2.6-.15,24.76-12.38,25.52-13.3s.77-34.69.77-34.69L36.54,55,34.46,70.69Z"/><path class="cls-1" d="M14,47.45s-.92,34.08,0,35.31,24.15,13,25.22,12.68,0-36.68,0-36.68l-6.73-9.48Z"/><path class="cls-5" d="M39.2,58.76l-19.26-.92L14,47.45s22.62-9,25.22-8.56,26.29,8.56,26.29,8.56L51.73,62Z"/><path class="cls-6" d="M39.2,58.76s-7,11.61-7.64,11.92S8.48,60,8.17,58.76,14,47.45,14,47.45Z"/><path class="cls-1" d="M51.73,62,65.49,47.45S41.8,39.35,39.2,38.89V58.76Z"/><path class="cls-6" d="M39.2,58.76s6.72,10.54,7.95,10.85S69.77,58,70.53,57.23s-5-9.78-5-9.78Z"/></g><g id="ANGEL"><path id="FONDO" class="cls-7" d="M78,9.72a.32.32,0,0,0-.41,0l-.12.08-.23.18-.13,0-.23.12a.45.45,0,0,0-.16,0,6,6,0,0,0-1.3.57l-.57.24a.57.57,0,0,0-.28,0l-.21.09a.6.6,0,0,0-.5,0l-.35.2a.71.71,0,0,0-.47.06,9.13,9.13,0,0,0-.89.43,16.91,16.91,0,0,0-5,1.72,10.73,10.73,0,0,0-1.34.6c-.31.08-.62.16-.92.26a9.44,9.44,0,0,0-3.59,2.31,24,24,0,0,0-1.81,1.94,1,1,0,0,0-.74.5c-.56,1-1.1,2-1.61,3-.88,1.55-1.78,3.1-2.67,4.64a.92.92,0,0,0,.27,1.25c-.23.47-.47.93-.7,1.39a1,1,0,0,0-.05.9,20.37,20.37,0,0,0-.77,2.15c-.32,1.05-.59,2.11-.9,3.16-.24.66-.46,1.32-.67,2-.19.49-.38,1-.55,1.49a.79.79,0,0,0,0,.3c-.05.14-.09.27-.13.4a10.07,10.07,0,0,0-.63,1.77,2.33,2.33,0,0,1-.46-.08,2.87,2.87,0,0,1-1-.43,1,1,0,0,0-.18-.28,8.89,8.89,0,0,0-.89-.85,1.1,1.1,0,0,0-.45-.24c.14-.44.26-.87.36-1.22s.24-.83.36-1.24v0a21.56,21.56,0,0,0,.84-2.46,3.85,3.85,0,0,0,.73-.37,5.35,5.35,0,0,0,.5-.37c1.69-.43,2.2-2.33,2-3.87a2,2,0,0,0-2-1.78,2.06,2.06,0,0,0-.57.12h-.13c0-.2,0-.4,0-.59A1.12,1.12,0,0,0,49,27a10.59,10.59,0,0,0,1.33-5.2A6.3,6.3,0,0,0,49.45,19a13.73,13.73,0,0,1-1.22-2.14,1.21,1.21,0,0,0-.56-.69,5.11,5.11,0,0,0-1-1.44,13.22,13.22,0,0,0-2.91-2.19A13.38,13.38,0,0,0,42,11.75l-.41-.19c-.2-.7-1.07-1.05-1.71-1.18a2.85,2.85,0,0,0-1.22-.08,1.11,1.11,0,0,0-.93-1.68,1,1,0,0,0-.94.56,4,4,0,0,0-2,.4,5.28,5.28,0,0,0-.53.27,3.62,3.62,0,0,0-1.81,1.41,1.22,1.22,0,0,0-.66,0A5.19,5.19,0,0,0,30,12,18.81,18.81,0,0,0,26.64,14a7.33,7.33,0,0,0-2.77,4.34c-.82,3.66.58,7.18.69,10.82a1.11,1.11,0,0,0,0,.19l-.22.19a1.53,1.53,0,0,0-.27.11A1.21,1.21,0,0,0,23,31.06a8.56,8.56,0,0,0,1.18,2.74,3,3,0,0,0,2.4,1.66l.18,0a3.82,3.82,0,0,0,.49,1.14c0,.12-.08.25-.11.38a4.27,4.27,0,0,0,.62,3.12,1.22,1.22,0,0,0-.33,0h-.06a3.43,3.43,0,0,0-1.19.13,1.06,1.06,0,0,0-.72.66l-.36.06a.83.83,0,0,0-.22.08l-.66,0a1.09,1.09,0,0,0-.77.1H23.3l-.1,0a39.24,39.24,0,0,1-.7-5.41,1.14,1.14,0,0,0-.46-.88c-.06-1-.13-2-.2-3-.13-1.7-.17-3.44-.46-5.12a13.43,13.43,0,0,0-1.93-4.54,1,1,0,0,0-.75-.5A20.28,20.28,0,0,0,16,19.08l-.77-.73a1.16,1.16,0,0,0-.48-.59l-.51-.33q-1.87-1.72-3.81-3.38a.79.79,0,0,0-.32-.18c-.5-.53-1-1.07-1.47-1.61l-.15-.13v0h0a10.18,10.18,0,0,0-1-1.45l-.23-.38L6.24,8.6l-.61-.93C5.22,6.84,4.81,6,4.38,5.19A.77.77,0,0,0,4,4.84Q3.79,4,3.47,3.25a6.1,6.1,0,0,0-.73-1.44.66.66,0,0,0,0-.14.55.55,0,0,0-.4-.56.19.19,0,0,0,0-.1A1.29,1.29,0,0,0,2.15.68a.2.2,0,0,0-.25,0,.2.2,0,0,0-.09.22.11.11,0,0,0,0,.08.23.23,0,0,0-.07.18h0a.48.48,0,0,0-.24.37s0,.07,0,.11A.58.58,0,0,0,1.46,2a44,44,0,0,0-.41,4.46S1,6.57,1,6.63A10,10,0,0,0,.39,9a28,28,0,0,0-.23,4.93,41.4,41.4,0,0,0,1.52,9.63,44.66,44.66,0,0,0,1.67,4.93,1.13,1.13,0,0,0-.05,1.2,13.87,13.87,0,0,0,1.76,2.5l.23.44a17.47,17.47,0,0,0,6,6.82,14.45,14.45,0,0,0,6.59,2.25l-.08,0c-2.35.95-4.94,1.17-7.16,2.47A4.79,4.79,0,0,0,9,45.52a3.13,3.13,0,0,0-.38,2.14c0,.21.06.42.1.63a1.1,1.1,0,0,0-.11.56,7.78,7.78,0,0,0,.29,1.8,1.14,1.14,0,0,0,1,.85,5.24,5.24,0,0,0,2,1.9,10.38,10.38,0,0,0,4.36,1.8c2.8.43,5.53-.36,8.32-.34a12.44,12.44,0,0,0,3-.19h0a7.82,7.82,0,0,0,5.3,2.19,1,1,0,0,0,.52-.11l.38.09a12.59,12.59,0,0,0,2.61.64.41.41,0,0,0,.4-.53.88.88,0,0,0,.32-.49c0-.22.68-.26.88-.32L38.4,56h.06a1,1,0,0,0,.69-.26,1.81,1.81,0,0,0,.29-.19l.12,0h0a.91.91,0,0,0,.66.57l.28,0h0a4.79,4.79,0,0,0,2.35-.34.68.68,0,0,0,.84.71c.92-.3,1.78-.75,2.68-1.11A8.05,8.05,0,0,1,47.7,55c.35-.07.72-.05,1.08-.09a4.24,4.24,0,0,0,1.61-.46h0c.33.09.66.17,1,.24l2.07.45a1,1,0,0,0,.59,0c.29,0,.58.09.86.15a5.68,5.68,0,0,0,2,.11,9.65,9.65,0,0,0,3.51-.28,13.26,13.26,0,0,0,5.22-2.34c1.61-1.2,3.32-3,2.73-5.18a3.74,3.74,0,0,0-2.08-2.24l-.22-.11a.74.74,0,0,0-.16-.2,8.22,8.22,0,0,0-1.53-1c-.52-.3-1.05-.58-1.58-.87s-1.27-.72-1.91-1.08a3.79,3.79,0,0,0-.2-.34c1.54-.6,3.09-1.21,4.61-1.87a8.3,8.3,0,0,0,3.33-2.23.89.89,0,0,0,.29-.15l.25-.19h0a18,18,0,0,0,4.34-5.86,1.28,1.28,0,0,0,.15-.69c.09-.16.19-.32.27-.48a1.14,1.14,0,0,0,.15-.45l0,0a1.2,1.2,0,0,0,.65-.76c.26-.8.53-1.59.79-2.39.15-.39.29-.79.42-1.19a1.26,1.26,0,0,0,.57-.76c.12-.51.23-1,.33-1.54a8,8,0,0,0,.8-2.21,14.16,14.16,0,0,0,.52-3,1.14,1.14,0,0,0-.26-.79,34.94,34.94,0,0,0,.21-5.7.78.78,0,0,0,0-.16.54.54,0,0,0,.07-.13h0a7.63,7.63,0,0,0,.12-1A.42.42,0,0,0,78,9.72ZM30.15,43.08c-.26-.2-.53-.4-.81-.58a.5.5,0,0,0-.19-.1,5.42,5.42,0,0,1-.14-.7,11.93,11.93,0,0,0,2.61,1.95l.16.17Zm16.19,3.49v0l.06,0a.11.11,0,0,0,0,0Z"/><g id="LINEAS"><path class="cls-8" d="M75,14.29a31.93,31.93,0,0,1-6.63,3.27,20,20,0,0,0-5.69,3.38,10,10,0,0,0-3.14,5.6C59,29,59,31.53,58.29,34c-.62,2.09-1.79,4.35-4,5.13-.84.29-.39,1.62.43,1.29,4.42-1.75,5.29-7.23,5.67-11.38.23-2.39.65-4.65,2.29-6.5a17.5,17.5,0,0,1,5.41-3.73,31.23,31.23,0,0,0,7-4.27C75.27,14.39,75.1,14.2,75,14.29Z"/><path class="cls-8" d="M20.44,38.65a5.7,5.7,0,0,1-3.2-3.7,30.27,30.27,0,0,1-1-6,11.08,11.08,0,0,0-2.42-5.9c-1.45-1.7-3.19-3.15-4.72-4.77a48.31,48.31,0,0,1-4.86-6.17.13.13,0,0,0-.21.14A46.83,46.83,0,0,0,8,18.2c.7.9,1.41,1.79,2.18,2.64s1.59,1.6,2.35,2.44a8.93,8.93,0,0,1,1.86,2.91,14.45,14.45,0,0,1,.71,3.37,25.33,25.33,0,0,0,1.06,6.06,6.83,6.83,0,0,0,4,4.31C21,40.2,21.24,38.91,20.44,38.65Z"/><path class="cls-8" d="M6.29,16.85a1.29,1.29,0,0,0-1-.74c-.35-.12-.69-.24-1-.38a5.34,5.34,0,0,1-1.94-1c-.13-.14-.3.05-.23.19a5.24,5.24,0,0,0,1.32,1.92,4.18,4.18,0,0,0,1,.56,2.08,2.08,0,0,0,1.39.28A.65.65,0,0,0,6.29,16.85Z"/><path class="cls-8" d="M7.54,20.22a5.39,5.39,0,0,0-1.45-.07,5,5,0,0,1-2.71-1,.1.1,0,0,0-.14.13,5.4,5.4,0,0,0,1.67,1.66,4.07,4.07,0,0,0,2.44.66.69.69,0,0,0,.19-1.33Z"/><path class="cls-8" d="M9.32,23.73a1.65,1.65,0,0,0-1-.1,4,4,0,0,1-1.09,0,9.58,9.58,0,0,1-2-.51c-.11,0-.19.11-.13.19A3.7,3.7,0,0,0,7,24.67c.76.26,1.81.55,2.47,0A.59.59,0,0,0,9.32,23.73Z"/><path class="cls-8" d="M10.71,26.7a7,7,0,0,1-2,.34,4.62,4.62,0,0,1-2.13-.49c-.12-.07-.22.1-.13.2a5.23,5.23,0,0,0,.92.9,5,5,0,0,0,1.16.56,4,4,0,0,0,2.7-.07A.76.76,0,0,0,10.71,26.7Z"/><path class="cls-8" d="M13.07,30.11A18.84,18.84,0,0,1,11,30.5a8.08,8.08,0,0,1-2.25,0,.14.14,0,0,0-.06.27c.38.14.71.33,1.1.45a12.22,12.22,0,0,0,1.23.28,7.31,7.31,0,0,0,2.38.11A.75.75,0,1,0,13.07,30.11Z"/><path class="cls-8" d="M13.65,33.51A7.49,7.49,0,0,1,11,34c-.15,0-.27.21-.1.28.48.19.92.47,1.42.63a3.94,3.94,0,0,0,1.64.15A.79.79,0,1,0,13.65,33.51Z"/><path class="cls-8" d="M73.75,18.43a3.18,3.18,0,0,1-2.11.45c-.35,0-.69.06-1,.06a2.75,2.75,0,0,0-1.11,0,.68.68,0,0,0-.43.85,1.2,1.2,0,0,0,1.3.69,5.84,5.84,0,0,0,1.54-.3A4.23,4.23,0,0,0,74,18.63C74.06,18.5,73.88,18.34,73.75,18.43Z"/><path class="cls-8" d="M72,22.43a3.33,3.33,0,0,1-2.07,0,6.12,6.12,0,0,1-.93-.26,2.46,2.46,0,0,0-1-.27A.73.73,0,0,0,67.38,23a2.75,2.75,0,0,0,2.51.76,5.87,5.87,0,0,0,2.23-1.05C72.28,22.63,72.16,22.36,72,22.43Z"/><path class="cls-8" d="M69.74,26.06a4.82,4.82,0,0,1-2-.19A9.76,9.76,0,0,1,66,25.32c-.92-.42-1.65,1-.72,1.4a4.57,4.57,0,0,0,2.44.41,5,5,0,0,0,1.15-.3c.35-.15.63-.4,1-.57C70,26.19,69.85,26,69.74,26.06Z"/><path class="cls-8" d="M68.21,29.34A15.22,15.22,0,0,1,66.1,29c-.34-.09-.69-.17-1-.29s-.7-.35-1.13-.16a.68.68,0,0,0-.41.82c.29.83,1.61,1,2.38.94a3.93,3.93,0,0,0,2.34-.77C68.31,29.48,68.31,29.35,68.21,29.34Z"/><path class="cls-8" d="M66.16,32.05a3.1,3.1,0,0,1-1.42,0c-.56-.13-1.09-.31-1.66-.41A.74.74,0,1,0,63,33.07a8.69,8.69,0,0,0,2.1-.07,1.58,1.58,0,0,0,1.24-.79C66.36,32.12,66.25,32,66.16,32.05Z"/><path class="cls-8" d="M64.66,35.39c-.21-.29-.76-.28-1.09-.35a9.18,9.18,0,0,1-1.6-.48.74.74,0,1,0-.5,1.38,4.85,4.85,0,0,0,2.24.05C63.82,36,64.89,35.71,64.66,35.39Z"/><path class="cls-8" d="M62.23,37.86c-.64-.31-.94-1.18-1.7-1.26a.61.61,0,0,0-.64.92c.52.82,1.51.49,2.3.51A.09.09,0,0,0,62.23,37.86Z"/><path class="cls-8" d="M78.35,9.07c-.06-.2-3.1,1.26-4.49,1.66s-2.85.74-4.27,1.17a24.27,24.27,0,0,0-7.94,3.8c-4.66,3.61-7.07,9.21-8.73,14.71-.54,1.81-1,3.65-1.48,5.47-.25.93-.5,1.86-.77,2.78A25.81,25.81,0,0,0,50,41.23a3,3,0,0,1-1-.39,11.75,11.75,0,0,1-1.3-1.24A8.91,8.91,0,0,0,48,38.48c.09-.39.35-1.13,0-1.42a.23.23,0,0,0-.21-.05c-.41.2-.37.7-.46,1.09a9.24,9.24,0,0,1-.47,1.55,11.39,11.39,0,0,1-1.55,2.71,11.09,11.09,0,0,1-5.08,3.75,0,0,0,0,0,0,.07A10.16,10.16,0,0,0,47.5,40a3.39,3.39,0,0,0,2.12,1.84,14.53,14.53,0,0,0,2.16.36,3.15,3.15,0,0,1,.95.28,6.48,6.48,0,0,0,.81.46c.29.1.49-.23.43-.47-.29-1.13-2.23-1.12-3.12-1.16h-.19a14.55,14.55,0,0,0,.67-1.81c.27-.82.51-1.65.75-2.48q.7-2.38,1.4-4.78a48.18,48.18,0,0,1,3.13-8.45,21.5,21.5,0,0,1,5-6.72,24.41,24.41,0,0,1,7.48-4c3-1.1,6-2,8.86-3.35,0,1.29,0,2.57-.06,3.86a42.25,42.25,0,0,1-.51,4.49,47.6,47.6,0,0,1-2,7.91,25.78,25.78,0,0,1-8.56,12.37,20.28,20.28,0,0,1-3.46,2.09,18,18,0,0,1-1.83.74,8.74,8.74,0,0,0-2,.72.48.48,0,0,0,.15.86,7.61,7.61,0,0,0,3.66-1,20.9,20.9,0,0,0,3.29-1.86,24,24,0,0,0,5.45-5.38,35.86,35.86,0,0,0,6-15.25,37,37,0,0,0,.51-5.14A17.15,17.15,0,0,0,78.35,9.07Z"/><path class="cls-8" d="M33.74,19.11a3.39,3.39,0,0,0-.29-.53,5.21,5.21,0,0,0-.28-.52,1.82,1.82,0,0,0-1-.72.08.08,0,0,0-.07.14A1.71,1.71,0,0,1,33.08,19a1.22,1.22,0,0,1-.75,1.08.62.62,0,0,0,.37,1.12A1.55,1.55,0,0,0,33.74,19.11Z"/><path class="cls-8" d="M36.88,19.29a5.11,5.11,0,0,0-1.33-2.71A8.47,8.47,0,0,0,33,14.83c-.06,0-.1.05,0,.09a7,7,0,0,1,1.76,2,5,5,0,0,1,1,2.28,5.77,5.77,0,0,1-.12,2.55,2.41,2.41,0,0,1-.54.86,2.15,2.15,0,0,1-.46.33,1.92,1.92,0,0,1-.38.07c-.57.06-.78-.57-.72-1.06a.07.07,0,0,0-.14,0A3.24,3.24,0,0,0,33,23.21a1.15,1.15,0,0,0,.73,1,2.09,2.09,0,0,0,.83.15,1.51,1.51,0,0,0,.64-.09,1.21,1.21,0,0,0,.66-.44,3.59,3.59,0,0,0,.81-1.24A6.26,6.26,0,0,0,36.88,19.29Z"/><path class="cls-8" d="M41.73,18.7a6.27,6.27,0,0,0-1.9-3.55s-.09,0-.06.07C41.37,17,41.66,20.1,41,22.36A4.33,4.33,0,0,1,39,25a3,3,0,0,1-1.08.37l.12-.07a4.9,4.9,0,0,0,1.64-1.43A6.14,6.14,0,0,0,40.8,20c-.09-2.89-2.2-5.15-4.73-6.3,0,0,0,0,0,0a7.44,7.44,0,0,1,3.7,5.86,5.52,5.52,0,0,1-.87,3.14,4.32,4.32,0,0,1-1,1.12A3.06,3.06,0,0,1,36,24.5a.33.33,0,0,0-.27.1.25.25,0,0,0-.12,0,.43.43,0,0,0-.23.19.62.62,0,0,0-.06.35.58.58,0,0,0,0,.19.56.56,0,0,0,.1.39c.79,1.09,2.45,1,3.57.54a5.09,5.09,0,0,0,2.72-3A9.72,9.72,0,0,0,41.73,18.7Z"/><path class="cls-8" d="M47.53,23.22a6.25,6.25,0,0,0-1.16-1.76,4.8,4.8,0,0,0-3.73-1.67,0,0,0,0,0,0,.09,5.55,5.55,0,0,1,3.1,2,5.69,5.69,0,0,1,1.06,1.55c.11.24.21.5.3.76s.11.63.25.92a.19.19,0,0,0,.34,0A2.72,2.72,0,0,0,47.53,23.22Z"/><path class="cls-8" d="M30.86,15.44a3.14,3.14,0,0,1-1.12,1.3c-.41.27-.84.54-1.24.83a3.2,3.2,0,0,0-1.4,2.37c-.05,1.15.62,2.16.45,3.33a26.63,26.63,0,0,1-1,3.1.16.16,0,0,0,.27.14,5.89,5.89,0,0,0,1.46-2.71,6.88,6.88,0,0,0-.08-3.19c-.23-1.16.52-1.94,1.28-2.71A4.75,4.75,0,0,0,31,15.5.09.09,0,0,0,30.86,15.44Z"/><path class="cls-8" d="M38.27,8.88a.65.65,0,0,0-.49-.43A4.85,4.85,0,0,0,34.26,9a5.08,5.08,0,0,0-1.85,2.38.1.1,0,0,0,.18.09c1-1.86,3.25-1.87,5.09-1.74a.66.66,0,0,0,.55-.36A.75.75,0,0,0,38.27,8.88Z"/><path class="cls-8" d="M40.53,10.73a5.38,5.38,0,0,0-3.29-.64,4.22,4.22,0,0,0-2.82,1.18c-.06.07,0,.19.11.13A2.36,2.36,0,0,1,36,11.19c.47,0,.93,0,1.4-.06a4.63,4.63,0,0,1,2.62.62C40.63,12.13,41.17,11.1,40.53,10.73Z"/><path class="cls-8" d="M52.7,29.53a2.44,2.44,0,0,0-2.16-2,2.06,2.06,0,0,0-1,.22c.12-.33.21-.68.31-1A13.61,13.61,0,0,0,50.28,20a10.89,10.89,0,0,0-4.15-6.66,9.48,9.48,0,0,0-4-1.63.08.08,0,0,0,0,.16,11.1,11.1,0,0,1,6.61,6.24,11.8,11.8,0,0,1,.78,5.06A13.27,13.27,0,0,1,49,25.86c-.1.36-.21.71-.34,1.06a.72.72,0,0,1-.27-.39,2.7,2.7,0,0,1-.09-.89c0-.1-.15-.11-.16,0a2.26,2.26,0,0,0,0,1.29,1.07,1.07,0,0,0,.31.42c-.06.13-.13.26-.19.4a1.72,1.72,0,0,1-.25-.28A3.12,3.12,0,0,1,47.61,26c0-.08-.13-.12-.17,0a2.14,2.14,0,0,0,0,1.85,2.17,2.17,0,0,0,.69.76l.06.12a1.56,1.56,0,0,0-.44,1,.19.19,0,0,0,.29.15c.72-.48,1.25-1.1,2.19-1.17a1.67,1.67,0,0,1,1,.23,2,2,0,0,1,.49,1.1,4,4,0,0,1-.41,2.38,2.53,2.53,0,0,1-.73.95,2.23,2.23,0,0,1-1.13.31.49.49,0,0,0-.2.92c1.13.57,2.38-.56,2.89-1.47A5,5,0,0,0,52.7,29.53Z"/><path class="cls-8" d="M38,46.44A10.53,10.53,0,0,1,35.41,46a9,9,0,0,1-2.19-1.1,24.27,24.27,0,0,1-3.74-3.35,6.44,6.44,0,0,1-1.43-2,10.77,10.77,0,0,1-.54-2.17,10.16,10.16,0,0,0-1.32-4.08c-.07-.09-.23,0-.18.08a9.22,9.22,0,0,1,.46,1.47,5.22,5.22,0,0,1-1.54-1.42,7,7,0,0,1-1.15-1.93c-.14-.43-.29-1.41.34-1.58a2,2,0,0,1,.91.21c.3.11.55.3.86.39.13,0,.26-.09.26-.22,0-.49-.42-.77-.78-1.05L25,29a1.22,1.22,0,0,0,.91-.4,2.26,2.26,0,0,0,.37-.61c.09-.21.2-.42.05-.62a.25.25,0,0,0-.28-.09c-.3.07-.37.55-.49.8a1.41,1.41,0,0,1-.7.78.08.08,0,0,0,0,0l-.18-.09a6.06,6.06,0,0,0,.88-2.47,4.11,4.11,0,0,0-.29-2.77.21.21,0,0,0-.39.13A8.7,8.7,0,0,0,25,25a6.73,6.73,0,0,1,.06,1.19,7.51,7.51,0,0,1-.58,2.35,9.85,9.85,0,0,0,0-1.21,16.81,16.81,0,0,0-.21-2.24,33.92,33.92,0,0,1-.6-4.59,8,8,0,0,1,4-6.86,15.23,15.23,0,0,1,2.26-1.1,5.18,5.18,0,0,0,2.16-1.32.14.14,0,0,0-.15-.22,15.59,15.59,0,0,0-2.35.82,17,17,0,0,0-2,.91,10,10,0,0,0-3.16,2.71,8.17,8.17,0,0,0-1.62,3.73A15.86,15.86,0,0,0,23,23.86c.15.9.31,1.79.38,2.7a12,12,0,0,1,0,1.34c0,.3-.07.6-.1.89a1.79,1.79,0,0,0-.78.85,41,41,0,0,0-.81-4.31,11.24,11.24,0,0,0-2.21-4.13C15.94,16.75,10.64,14,7.29,9.35,5.28,6.57,2.16-.71,1.56.06A48.46,48.46,0,0,0,.09,9.85,53.08,53.08,0,0,0,.53,20.54c1,6.31,3.11,12.69,7.87,17.17a17.05,17.05,0,0,0,8.66,4.47c.87.15,1.17-1.19.3-1.34-5.74-1-10.28-5.35-12.82-10.42a35.28,35.28,0,0,1-2.93-9.13A50.49,50.49,0,0,1,.71,11.1,53.76,53.76,0,0,1,1.93.82C2.47,1.92,3,3,3.57,4.11,4.33,5.6,5,7.12,5.82,8.59a24.66,24.66,0,0,0,5.35,6.51c2.1,1.88,4.31,3.63,6.24,5.69A14.07,14.07,0,0,1,20,24.28a19.88,19.88,0,0,1,1.2,4.89c.68,3.8,1,7.65,1.68,11.45-1.15,0-2.59,0-3.28,1a.36.36,0,0,0,.46.54,4.54,4.54,0,0,1,2.26-.67,11.62,11.62,0,0,0,2.36-.18,11.2,11.2,0,0,0,2.16-1,4.17,4.17,0,0,0,.46-.26q.11.26.24.51a8.57,8.57,0,0,0,1.62,2,21.85,21.85,0,0,0,4.13,3.36A6.87,6.87,0,0,0,38.07,47C38.4,46.88,38.25,46.46,38,46.44ZM26.59,39.72a9.71,9.71,0,0,0-1,.43,5.28,5.28,0,0,1-2,.45,48.44,48.44,0,0,0-.57-7.49A11.66,11.66,0,0,0,24,34.33a4,4,0,0,0,1.28,1.15,1.18,1.18,0,0,0,.66.1,1.12,1.12,0,0,0,.4.1.53.53,0,0,0,.25,0,2.28,2.28,0,0,1,0,.26c.06.79.05,1.58.17,2.37a8.15,8.15,0,0,0,.29,1.3A3.86,3.86,0,0,1,26.59,39.72Z"/><path class="cls-8" d="M50.8,29.79c-.8-.4-1.64.63-1.88,1.3a.19.19,0,0,0,.08.24s.1,0,.15,0a3.64,3.64,0,0,0,.61-.63,1,1,0,0,1,.93-.37C51,30.34,51,29.91,50.8,29.79Z"/><path class="cls-8" d="M50.17,31.8c-.11,0-.22.05-.3-.07a.39.39,0,0,1,0-.26,2.45,2.45,0,0,0,.08-.29c0-.1-.1-.15-.17-.09a.81.81,0,0,0-.27.47.56.56,0,0,0,.1.45c.17.2.7.34.69-.06A.16.16,0,0,0,50.17,31.8Z"/><path class="cls-8" d="M25.51,30.94a2.86,2.86,0,0,0-.5-.42.44.44,0,0,0-.7.22c0,.08.08.15.15.1.23-.17.51.17.65.31s.35.46.62.44a.14.14,0,0,0,.14-.15C25.88,31.2,25.67,31.08,25.51,30.94Z"/><path class="cls-8" d="M25.26,32a.12.12,0,0,0-.05.23.26.26,0,0,1,.19.23c0,.12-.11.15-.17.23s.07.35.25.24A.51.51,0,0,0,25.26,32Z"/><path class="cls-8" d="M47.51,20.65a6.34,6.34,0,0,0-1.18-1.07,4.22,4.22,0,0,0-3-.7.07.07,0,0,0,0,.13,4.14,4.14,0,0,1,2.87,1.06,9.29,9.29,0,0,1,1,1.05A2.88,2.88,0,0,0,48,22a.16.16,0,0,0,.23-.15A2.45,2.45,0,0,0,47.51,20.65Z"/><path class="cls-8" d="M31.31,13.63a4.14,4.14,0,0,1-1.54,1.65c-.67.39-1.41.61-2.1,1a4.12,4.12,0,0,0-1.56,1.24,1.34,1.34,0,0,0-.17,1.59.31.31,0,0,0,.54,0c.11-.27.13-.55.24-.81a2,2,0,0,1,.67-.79c.51-.4,1.08-.72,1.58-1.12a8.33,8.33,0,0,0,2.5-2.62A.09.09,0,0,0,31.31,13.63Z"/><path class="cls-8" d="M31.54,12.47a7.19,7.19,0,0,1-1.28.9,9.32,9.32,0,0,1-1.57.52c-.64.2-1.73.56-1.88,1.31a.25.25,0,0,0,.37.25c.41-.21.7-.58,1.14-.77s.89-.33,1.32-.53a6.58,6.58,0,0,0,2-1.55C31.76,12.51,31.63,12.4,31.54,12.47Z"/><path class="cls-8" d="M47.31,17.05a4.88,4.88,0,0,0-1.23-1.45,10.06,10.06,0,0,0-1.59-1.25,6.67,6.67,0,0,0-3.61-1.11c-.05,0-.05.08,0,.08a7,7,0,0,1,3.56,1.43,11.63,11.63,0,0,1,1.34,1.19A9,9,0,0,0,47,17.28.19.19,0,0,0,47.31,17.05Z"/><path class="cls-8" d="M33.53,28.89c-1.05-1.29-3.42-1.66-4.44-.13,0,0,0,.09.08,0a2.34,2.34,0,0,1,2.08-.53A4.2,4.2,0,0,1,33,29.35C33.29,29.59,33.79,29.22,33.53,28.89Z"/><path class="cls-8" d="M45.25,29.14a2.7,2.7,0,0,0-2.53-1.39c-.7,0-2.16.5-2.12,1.39a.24.24,0,0,0,.32.22c.33-.1.52-.43.81-.61a2.48,2.48,0,0,1,1-.35,3.18,3.18,0,0,1,2.38.84A.08.08,0,0,0,45.25,29.14Z"/><path class="cls-8" d="M32.93,32.13a2.68,2.68,0,0,0-3.18-.07,0,0,0,0,0,0,.07A9.08,9.08,0,0,1,30.9,32a1.08,1.08,0,0,0,.75,1.52,1,1,0,0,0,1.12-1A.22.22,0,0,0,32.93,32.13Zm-1.45.36c-.11,0-.11-.09-.12-.19a.61.61,0,0,1,0-.27.15.15,0,0,0,0-.07,1.88,1.88,0,0,1,.33,0c0,.05,0,.1,0,.15a.17.17,0,0,0,0,.1C31.81,32.44,31.63,32.52,31.48,32.49Z"/><path class="cls-8" d="M44.35,32.4a3,3,0,0,0-2.85-.1.18.18,0,0,0,.15.32l.29-.08c-.08.58.14,1.27.84,1.23a1,1,0,0,0,.8-1.46,2.49,2.49,0,0,1,.73.17S44.41,32.42,44.35,32.4Zm-1.7.51a.33.33,0,0,1-.15.05h0a.44.44,0,0,1-.14-.28s0,0-.05,0a1.46,1.46,0,0,1,.05-.2l.27-.06a.09.09,0,0,0,0,.07.44.44,0,0,1,.11.24A.26.26,0,0,1,42.65,32.91Z"/><path class="cls-8" d="M36.6,37.93l0,0a.41.41,0,0,1-.24,0,1.12,1.12,0,0,0-.25-.11.4.4,0,0,0-.46.19c-.1.21,0,.38.25.44a.52.52,0,0,0,.54-.16s0,0,0,0h0l0,0c.08,0,.15-.09.16-.17l.07-.09C36.74,38,36.65,37.88,36.6,37.93Z"/><path class="cls-8" d="M37.89,38l0,0a.33.33,0,0,0,.23.06,2.5,2.5,0,0,1,.26-.07.41.41,0,0,1,.43.25c.07.22-.1.37-.3.4a.51.51,0,0,1-.52-.24s0,0,0,0h0l0,0a.24.24,0,0,1-.14-.19l-.06-.1C37.74,38.05,37.84,38,37.89,38Z"/><path class="cls-8" d="M35.14,37.27a.69.69,0,0,0-.46.6.6.6,0,0,0,.37.65.15.15,0,0,0,.16-.22c-.1-.14-.24-.23-.26-.41a.53.53,0,0,1,.26-.49C35.28,37.36,35.22,37.23,35.14,37.27Z"/><path class="cls-8" d="M39.25,37.79s0,0,0,0a1.84,1.84,0,0,1,0,.62,1,1,0,0,1-.08.22c0,.08-.1.12-.14.2s0,.13.08.12.27-.23.31-.4A1.37,1.37,0,0,0,39.25,37.79Z"/><path class="cls-8" d="M36.77,33.47a5.89,5.89,0,0,1-.42,1.9c0,.07.08.1.12,0a3.63,3.63,0,0,0,.39-1.95A0,0,0,0,0,36.77,33.47Z"/><path class="cls-8" d="M40.5,41.21l-.44.06a.1.1,0,0,0,0-.05A5.46,5.46,0,0,0,37.21,40a4.43,4.43,0,0,0-2.94,1c-.12,0-.21,0-.21,0a.14.14,0,0,0-.24-.12l0,0a.15.15,0,0,0,0,.18c.19.31.82.26,1.14.27a3.06,3.06,0,0,0,.8-.08,2.74,2.74,0,0,0,1.34.48,2,2,0,0,0,1.53-.26s0,0,0,0l.28.06a3.85,3.85,0,0,0,1.69,0A.17.17,0,0,0,40.5,41.21Zm-3.68.34a1.84,1.84,0,0,1-.76-.21l-.14-.09a6.1,6.1,0,0,1,1-.17,4.49,4.49,0,0,1,1.41.35A3.24,3.24,0,0,1,36.82,41.55Zm2-.25c-.51-.07-1-.3-1.49-.36A7,7,0,0,0,36,41a5.27,5.27,0,0,1-1,.06s-.32,0-.57-.07A5.42,5.42,0,0,1,37,40.35a5,5,0,0,1,2.68.95A3.62,3.62,0,0,1,38.85,41.3Z"/><path class="cls-8" d="M38.74,42.79a5.6,5.6,0,0,1-3.41-.41s-.09,0,0,.08a3,3,0,0,0,1.62.85A3.14,3.14,0,0,0,38.78,43C38.89,43,38.88,42.78,38.74,42.79Z"/><path class="cls-8" d="M27.59,54.05l-1.67.23a42.88,42.88,0,0,1-8.35.63,11.51,11.51,0,0,1-3.61-1,14.52,14.52,0,0,1-3.26-1.84,5.2,5.2,0,0,1-1.81-3,6.14,6.14,0,0,1,.43-3.46c.53-1,2.11-1.33,3.16-1.55h0a8.78,8.78,0,0,1,3.92.28l3,.81,1.3.36L23,46.1a4.77,4.77,0,0,1,2.52,1.7.3.3,0,0,0,.37.17.27.27,0,0,0,.18-.34c-.35-1.33-2.36-2.22-3.5-2.54l-3.56-1-1.28-.34a13.84,13.84,0,0,0-4.24-.69,9,9,0,0,0-3.88,1.09,3.66,3.66,0,0,0-1.51,3,5.66,5.66,0,0,0,.74,3.94,8.62,8.62,0,0,0,1.12,1.38,7.46,7.46,0,0,0,1.51,1l.14.08a17.69,17.69,0,0,0,4,1.78,15.19,15.19,0,0,0,3.73.38,48.63,48.63,0,0,0,8.46-.89.41.41,0,0,0,.31-.49A.42.42,0,0,0,27.59,54.05Z"/><path class="cls-8" d="M25.56,48.46a.26.26,0,0,0,0,.3.2.2,0,0,0,.24.05l.81-.39a10,10,0,0,1,1.81-.76,7.16,7.16,0,0,1,3.06-.2,8.64,8.64,0,0,1,1.89.65,5.19,5.19,0,0,0,3.26.62.31.31,0,0,0,.13-.06h0a.37.37,0,0,1-.05.16.22.22,0,0,0,0,.1.34.34,0,0,0,.19.37.32.32,0,0,0,.14,0,.33.33,0,0,0,.23-.11.66.66,0,0,0,.17-.52.62.62,0,0,0-.26-.45.73.73,0,0,0-.52-.1.19.19,0,0,0-.1,0,10.64,10.64,0,0,1-2.75-.74,9.7,9.7,0,0,0-3-.77C29.16,46.54,26.8,47,25.56,48.46Z"/><path class="cls-8" d="M34.72,49.38a.21.21,0,0,0-.26.07.2.2,0,0,0,0,.25,4.54,4.54,0,0,0,2.71,1.13l.48,0a5.79,5.79,0,0,1,1.24.17,2.32,2.32,0,0,1,1.16.87.33.33,0,0,0,.25.12.47.47,0,0,0,.16,0,.44.44,0,0,0,.23-.47c-.28-1.11-1.82-1.35-2.29-1.4-.26,0-.53,0-.79,0a9.08,9.08,0,0,1-1-.07A7.31,7.31,0,0,1,34.72,49.38Z"/><path class="cls-8" d="M40.37,55.24a.38.38,0,0,1,0-.1.69.69,0,0,1,.2-.29l.13-.15a.75.75,0,0,0,.17-.59.37.37,0,0,0-.07-.14.34.34,0,0,1,0-.1h0a.39.39,0,0,1,0-.21l0-.11A1.89,1.89,0,0,0,40.9,53a.28.28,0,0,0,.17.09h.06a1.42,1.42,0,0,0,.86-.43,1.76,1.76,0,0,0,.51-.87.15.15,0,0,0-.1-.18.16.16,0,0,0-.2.07,1.83,1.83,0,0,1-.54.64,2.69,2.69,0,0,1-.38.19,2,2,0,0,0-.33.15.24.24,0,0,0-.09.08.09.09,0,0,0,0,0,.16.16,0,0,0-.17-.11.14.14,0,0,0-.14.12,2,2,0,0,1-.27.71l-.08.14a.79.79,0,0,0-.1.27,1,1,0,0,0,0,.24.53.53,0,0,1,0,.35.61.61,0,0,1-.15.17.69.69,0,0,0-.26.5.32.32,0,0,1-.09.22,1.65,1.65,0,0,1-.65.41,2.94,2.94,0,0,1-1,.18,5.35,5.35,0,0,0-.55,0,.33.33,0,0,0-.24.15.3.3,0,0,0-.06.2.77.77,0,0,0-.45.45.79.79,0,0,0,0,.34c0,.09,0,.14,0,.18s-.12.06-.27.07a2.8,2.8,0,0,1-1-.26L35,56.94a5.51,5.51,0,0,0-1.41-.28l-.78,0a9.77,9.77,0,0,1-2.09-.23,5.35,5.35,0,0,1-1.22-.48c-.17-.1-.33-.21-.49-.32a4,4,0,0,0-.66-.41.23.23,0,0,0-.24,0,.19.19,0,0,0-.05.21c.29.82,1.27,1.24,2,1.49a10.22,10.22,0,0,0,3.13.41,5.78,5.78,0,0,1,1.84.34l.08,0a3.56,3.56,0,0,0,1.2.28h.18a.91.91,0,0,0,.8-.48.59.59,0,0,0,0-.29v-.06a.23.23,0,0,0-.05-.17l0-.13a.46.46,0,0,1,.18-.23,2.68,2.68,0,0,0,1.57-.17c.36-.14,1.19-.52,1.32-1A.25.25,0,0,0,40.37,55.24Z"/><path class="cls-8" d="M39.49,50.05a.17.17,0,0,0,.1,0,9.49,9.49,0,0,0,.83-.69,5.94,5.94,0,0,1,1.35-1,5,5,0,0,1,3-.41,7.14,7.14,0,0,1,1.93.76c1.17.59,2.38,1.2,3.53.7a.39.39,0,0,0,.24-.44.36.36,0,0,0-.37-.29H50a5.34,5.34,0,0,1-1.54-.2,8.69,8.69,0,0,1-1.21-.53l-.4-.2A6.17,6.17,0,0,0,44,47a5.38,5.38,0,0,0-4.68,2.77.2.2,0,0,0,.05.23A.25.25,0,0,0,39.49,50.05Z"/><path class="cls-8" d="M50.3,48h0a2.36,2.36,0,0,0,1.05-.41l.35-.2a18.67,18.67,0,0,1,1.77-.78,18.17,18.17,0,0,1,3.5-1,17,17,0,0,1,3.64-.24,15,15,0,0,1,1.92.18l.6.12a4.41,4.41,0,0,0,1.18.16.29.29,0,0,0,.28-.22.32.32,0,0,0-.14-.34,4.06,4.06,0,0,0-1.48-.4l-.28,0a17.46,17.46,0,0,0-1.9-.19,19.06,19.06,0,0,0-3.83.24,17.74,17.74,0,0,0-3.7,1,15.48,15.48,0,0,0-1.72.81l-.22.11a2.57,2.57,0,0,0-1.15.92.14.14,0,0,0,0,.14A.15.15,0,0,0,50.3,48Z"/><path class="cls-8" d="M68.67,46.66a6.44,6.44,0,0,0-2.41-1.92,34.08,34.08,0,0,0-3.13-1.44.16.16,0,0,0-.21.08.14.14,0,0,0,.07.2l.41.23a26.36,26.36,0,0,1,4,2.6,2,2,0,0,1,.68,2.31A8.83,8.83,0,0,1,66.84,51a9,9,0,0,1-4,3.25,14.39,14.39,0,0,1-2.41.6h-.05a17.18,17.18,0,0,1-3.06.38,17.84,17.84,0,0,1-2.73-.32l-2-.34-.32-.06a4.76,4.76,0,0,0-1.19-.12.33.33,0,0,0-.29.28.26.26,0,0,0,.16.3,8.57,8.57,0,0,0,2.24.46c.3,0,.59.06.86.11a22,22,0,0,0,3.06.32h0a17.14,17.14,0,0,0,3.18-.39l.11,0a15.75,15.75,0,0,0,2.78-.71,10.62,10.62,0,0,0,4.27-3.41C68,50.57,69.74,48.35,68.67,46.66Z"/><path class="cls-8" d="M51.44,53.73a.3.3,0,0,0,0-.41.29.29,0,0,0-.39-.06l-.35.24a8.84,8.84,0,0,1-2,1.16,9.57,9.57,0,0,1-2.13.42l-.38,0a3.24,3.24,0,0,0-1.56.7l-.32.22a1.48,1.48,0,0,1-.86.29.79.79,0,0,1-.26,0s0-.06.07-.2l0,0a1.27,1.27,0,0,0,.18-.67.3.3,0,0,0-.2-.26.32.32,0,0,0-.31.07,3,3,0,0,1-2.28.78.11.11,0,0,1,0-.06.14.14,0,0,0-.09-.11.12.12,0,0,0-.14,0,.27.27,0,0,0-.1.24.5.5,0,0,0,.22.34.71.71,0,0,0,.73,0,2.39,2.39,0,0,0,1.35-.26.47.47,0,0,0,.34.69,1.51,1.51,0,0,0,.5.09,2.43,2.43,0,0,0,1.37-.6,3.55,3.55,0,0,1,.85-.51,3.92,3.92,0,0,1,1.08-.16l.58,0a7.86,7.86,0,0,0,1.47-.34A6.49,6.49,0,0,0,51.44,53.73Z"/></g></g></g></g></svg>